<svg width="240" height="240" viewBox="10 10 48 48" fill="none" xmlns="http://www.w3.org/2000/svg">
  <title>DeepSeekOCR.io Logo</title>
  <defs>
    <linearGradient id="gradient" x1="0%" y1="0%" x2="100%" y2="100%">
      <stop offset="0%" stop-color="#5182ED" />
      <stop offset="100%" stop-color="#D56575" />
    </linearGradient>
  </defs>

  <!-- Icon Group -->
  <g transform="translate(10, 10)">
    <!-- Document/Magnifying Glass Shape -->
    <path d="M22 3C12.059 3 4 11.059 4 21C4 30.941 12.059 39 22 39C24.573 39 26.991 38.531 29.191 37.691L36.364 44.864C37.145 45.645 38.412 45.645 39.193 44.864C39.974 44.083 39.974 42.816 39.193 42.035L32.02 34.862C34.349 31.841 36 26.696 36 21C36 11.059 27.941 3 22 3Z" fill="url(#gradient)"/>

    <!-- Lines inside representing OCR -->
    <g fill="#FFFFFF">
      <!-- Many fine lines (Raw Text) -->
      <rect x="12" y="14" width="20" height="1.5" rx="0.75" opacity="0.8"/>
      <rect x="12" y="17" width="20" height="1.5" rx="0.75" opacity="0.8"/>
      <rect x="12" y="20" width="20" height="1.5" rx="0.75" opacity="0.8"/>

      <!-- Fewer, bolder lines (Structured Data) -->
      <rect x="12" y="25" width="20" height="2.5" rx="1.25"/>
      <rect x="12" y="29" width="15" height="2.5" rx="1.25"/>
    </g>
  </g>
</svg>
